<?xml version="1.0" standalone="no"?>
<!DOCTYPE svg PUBLIC "-//W3C//DTD SVG 20010904//EN"
 "http://www.w3.org/TR/2001/REC-SVG-20010904/DTD/svg10.dtd">
<svg version="1.0" xmlns="http://www.w3.org/2000/svg"
 width="250.000000pt" height="229.000000pt" viewBox="0 0 250.000000 229.000000"
 preserveAspectRatio="xMidYMid meet">

<g transform="translate(0.000000,229.000000) scale(0.100000,-0.100000)"
fill="#000000" stroke="none">
<path d="M890 1901 c0 -6 12 -16 28 -22 l27 -11 -29 -13 c-21 -9 -38 -10 -58
-3 -16 6 -31 8 -34 5 -3 -3 4 -8 15 -12 29 -9 26 -21 -9 -34 -49 -16 -35 -24
33 -18 44 5 57 4 45 -4 -17 -9 -17 -12 -2 -35 16 -23 16 -24 -2 -17 -18 6 -18
6 -1 -14 36 -41 13 -45 -33 -6 -18 14 -48 29 -69 32 -35 6 -36 8 -41 56 l-5
50 -14 -34 c-12 -27 -12 -37 -2 -53 10 -16 10 -19 0 -16 -7 2 -25 -8 -40 -23
-16 -16 -40 -29 -59 -31 l-32 -3 46 -32 c26 -18 51 -33 56 -33 6 0 10 -9 10
-19 0 -36 12 -51 41 -51 18 0 32 7 39 19 18 35 12 51 -19 51 -35 0 -48 15 -25
28 13 7 16 18 11 46 -5 32 -3 36 16 36 22 0 91 -39 72 -41 -5 0 -1 -4 10 -9
14 -7 10 -8 -16 -4 -48 8 -62 -13 -20 -29 32 -12 38 -21 21 -32 -8 -5 -8 -11
-1 -19 8 -9 -1 -21 -29 -45 -22 -18 -40 -42 -40 -53 0 -17 -4 -19 -32 -13 -40
9 -58 22 -58 42 0 13 -3 13 -15 3 -8 -7 -28 -10 -45 -8 -27 4 -28 3 -16 -11
11 -12 12 -21 4 -34 -12 -22 -4 -47 15 -47 7 0 18 -18 24 -40 9 -36 8 -42 -9
-51 -11 -6 -22 -8 -26 -5 -3 3 0 6 6 6 24 0 11 38 -26 78 -30 32 -43 40 -60
35 -13 -3 -20 -8 -17 -11 3 -3 -7 -11 -22 -18 l-28 -12 25 -11 c21 -9 22 -10
4 -8 -42 4 -76 -55 -39 -69 8 -4 12 -11 8 -17 -3 -5 2 -16 12 -24 17 -12 15
-13 -21 -13 -53 0 -77 -18 -72 -55 2 -23 8 -30 24 -28 17 2 23 -7 33 -46 12
-49 37 -71 81 -71 23 0 24 4 8 33 -7 12 -12 31 -12 42 -1 15 -7 20 -28 18 -25
-1 -26 0 -17 30 10 35 22 48 62 65 22 9 27 9 27 -2 0 -7 -13 -16 -30 -19 -33
-7 -39 -27 -14 -51 12 -12 20 -13 35 -6 12 7 25 7 35 2 10 -6 30 -5 50 1 28 9
34 15 34 39 0 15 5 28 10 28 6 0 10 -9 10 -20 0 -11 6 -20 13 -21 6 0 3 -4 -8
-9 -14 -6 5 -9 57 -9 78 -1 78 -1 100 -36 28 -42 72 -65 125 -65 27 0 46 -6
58 -20 10 -11 33 -22 52 -26 48 -9 76 -48 70 -99 -9 -75 -37 -210 -48 -232
-18 -33 -37 -35 -51 -5 -11 22 -20 27 -48 27 -42 0 -61 -16 -69 -58 -5 -25
-12 -33 -33 -35 -22 -3 -27 2 -33 27 -3 16 -13 32 -21 35 -8 3 -14 12 -14 20
0 21 -58 1 -86 -30 l-21 -24 -15 21 c-11 17 -20 21 -41 15 -36 -9 -51 -39 -38
-77 l10 -29 -72 -1 c-40 0 -88 -6 -107 -13 -33 -12 -29 -13 73 -18 121 -7 145
-17 101 -43 -16 -9 -21 -14 -12 -11 31 9 83 16 168 21 88 5 89 4 33 -32 -14
-9 -10 -9 15 0 30 11 35 10 47 -7 8 -10 12 -22 10 -27 -6 -9 32 -1 72 17 40
18 52 18 27 0 -14 -11 -15 -14 -4 -14 8 1 24 0 35 -1 17 -1 18 -3 5 -11 -9 -6
-10 -10 -3 -10 7 0 16 8 22 17 5 10 13 14 18 10 4 -5 -3 -17 -16 -28 -31 -25
-23 -24 45 6 74 33 99 32 49 -1 -53 -36 -69 -53 -24 -26 20 12 45 22 55 22 13
-1 8 -8 -19 -24 l-38 -23 51 3 c29 3 60 8 69 14 12 6 22 5 30 -3 10 -9 12 -9
9 2 -4 16 65 42 195 75 48 12 85 25 81 28 -3 4 11 9 32 13 22 3 46 10 55 15 9
4 70 12 135 16 124 8 122 14 -8 31 l-48 6 6 37 c5 31 2 40 -17 53 -19 14 -21
18 -8 34 13 17 13 17 -7 0 -11 -9 -30 -17 -41 -17 -12 0 -24 -8 -27 -17 -6
-15 -9 -14 -19 7 -9 18 -22 26 -46 28 -19 2 -31 -1 -27 -6 7 -12 -18 -34 -28
-24 -4 4 -7 2 -6 -3 6 -28 -2 -55 -15 -55 -9 0 -17 6 -19 13 -2 6 -8 27 -14
46 -9 26 -9 38 0 50 10 13 10 14 -2 4 -8 -7 -25 -13 -39 -13 -37 0 -52 -13
-60 -51 l-7 -33 -23 38 c-32 52 -41 161 -17 214 16 34 16 40 2 67 -9 17 -16
23 -16 15 0 -9 5 -21 11 -27 8 -8 8 -13 -1 -18 -17 -10 -37 12 -44 49 -9 47
-46 77 -100 83 -25 3 -46 9 -46 12 0 4 -19 15 -41 25 -31 14 -38 21 -28 27 9
6 -6 7 -37 3 -52 -6 -124 9 -124 26 0 5 -7 16 -16 24 -8 9 -11 16 -6 16 6 0
20 -12 32 -27 12 -16 18 -21 14 -13 -4 8 -15 24 -25 35 -21 24 -29 97 -11 103
6 2 12 -3 12 -12 0 -9 6 -13 15 -10 12 5 12 0 5 -27 -12 -40 -10 -42 23 -30
13 5 34 7 45 4 11 -2 23 1 27 7 5 8 12 1 21 -20 13 -30 17 -32 48 -27 28 4 35
2 44 -18 13 -28 -5 -49 -32 -39 -9 4 -16 1 -16 -6 0 -8 9 -11 25 -8 14 3 29 0
33 -6 4 -6 34 -18 67 -26 47 -12 64 -22 81 -46 l21 -32 9 42 c7 31 17 46 43
61 18 11 62 46 98 79 55 49 69 57 91 52 32 -8 38 -8 79 0 27 5 32 3 35 -16 5
-36 48 -63 80 -51 17 6 29 6 36 -1 16 -16 54 9 50 35 -2 17 -10 22 -33 22 -20
0 -31 6 -33 18 -4 21 2 21 49 0 38 -16 59 -47 59 -85 0 -20 -1 -20 -18 -5 -21
19 -32 13 -32 -18 0 -12 -7 -30 -15 -41 -8 -10 -15 -22 -15 -26 0 -11 59 -1
75 12 17 14 38 76 31 89 -4 5 0 12 6 14 9 4 4 14 -15 31 -29 26 -21 34 14 16
11 -6 19 -21 19 -35 0 -45 34 -23 35 22 1 30 -43 47 -98 40 l-42 -6 28 17 c15
10 25 23 22 30 -3 8 3 16 15 19 33 9 21 45 -20 65 -19 9 -28 17 -20 18 10 0 4
9 -15 24 -35 28 -49 25 -93 -22 -24 -25 -32 -41 -28 -57 5 -19 2 -22 -19 -18
l-24 5 22 44 c11 24 29 46 39 50 22 7 24 34 2 34 -8 0 -12 5 -9 10 3 6 0 10
-7 10 -7 0 -1 8 13 18 l27 17 -54 1 c-42 0 -55 -4 -59 -17 -5 -14 -32 -28 -57
-29 -4 0 -8 12 -10 28 -2 21 -8 27 -24 25 -16 -2 -26 8 -39 35 -10 20 -21 44
-25 52 -5 11 1 18 21 25 38 13 33 31 -8 28 -18 -1 -33 0 -33 2 0 11 77 55 95
55 18 0 20 -5 17 -36 -3 -25 1 -39 13 -48 13 -9 15 -15 7 -20 -7 -4 -16 -5
-21 -2 -14 9 -33 -21 -29 -46 2 -19 9 -23 38 -23 27 0 36 5 39 20 3 20 34 53
87 92 l29 22 -32 0 c-22 1 -42 10 -60 30 -16 15 -34 26 -40 24 -16 -6 -17 9
-2 24 9 9 9 20 -1 43 -11 26 -15 29 -22 16 -5 -9 -7 -25 -3 -35 9 -28 -5 -51
-30 -51 -12 0 -42 -13 -66 -30 -42 -28 -64 -25 -39 6 11 12 10 13 -4 8 -9 -3
-16 -11 -16 -17 0 -6 -3 -7 -6 -4 -4 4 -1 13 6 22 7 9 10 27 6 45 -6 35 -6 35
39 16 29 -12 34 -12 39 0 3 8 -4 19 -16 25 l-21 12 23 12 23 13 -23 12 c-18
10 -27 9 -46 -1 -30 -16 -46 -2 -20 17 27 19 16 26 -33 18 -40 -6 -60 -34 -24
-34 14 0 13 -3 -5 -16 -26 -18 -29 -34 -7 -34 20 0 35 -40 24 -61 -11 -22 0
-59 18 -59 13 0 13 -3 3 -16 -11 -13 -15 -13 -27 -1 -8 8 -15 22 -17 31 -1 10
-9 22 -17 27 -12 8 -11 11 4 20 13 8 15 14 7 30 -6 10 -17 19 -26 19 -10 0
-13 7 -8 25 6 25 5 25 -20 14 -14 -7 -26 -20 -26 -30 0 -10 -4 -21 -10 -24 -6
-4 -10 5 -10 19 0 20 9 30 40 46 22 11 40 24 40 29 0 11 -70 9 -88 -2 -6 -5
-12 -4 -12 1 0 5 -12 10 -26 10 -18 0 -28 -8 -35 -26 -5 -13 -12 -22 -16 -18
-3 3 -15 -1 -25 -11 -17 -15 -18 -15 -18 14 0 27 -3 30 -29 29 -25 -1 -28 -3
-17 -16 13 -15 11 -50 -3 -50 -5 0 -12 14 -17 32 -12 40 -34 49 -34 14 0 -14
-4 -26 -9 -26 -5 0 -7 8 -4 18 6 25 -14 40 -65 48 -29 4 -42 3 -42 -5z m287
-76 c-12 -26 -23 -30 -52 -18 -14 5 -11 9 16 24 45 24 49 23 36 -6z m-202 -63
c15 -8 16 -11 5 -12 -18 0 -40 19 -40 35 0 7 3 6 8 -1 4 -6 16 -16 27 -22z
m309 1 c-1 -16 3 -40 10 -54 11 -23 11 -29 -5 -50 -10 -13 -19 -19 -19 -13 0
5 5 15 12 22 9 9 8 16 -5 30 -11 12 -15 26 -11 37 4 10 1 21 -7 26 -12 8 -12
11 1 19 23 15 27 12 24 -17z m-282 -58 c4 -19 1 -25 -13 -25 -12 0 -19 7 -19
18 0 38 26 43 32 7z m116 -6 c1 -16 3 -34 5 -39 1 -4 -2 -10 -8 -11 -5 -2 -11
15 -13 39 -2 23 1 42 5 42 5 0 10 -14 11 -31z m-163 -58 c3 -5 -2 -16 -10 -24
-19 -20 -19 -36 0 -43 23 -9 18 -24 -9 -24 -30 0 -42 16 -26 35 7 8 9 15 4 15
-5 1 1 9 14 20 20 17 21 19 5 23 -16 4 -16 5 -1 6 9 0 19 -3 23 -8z m455 -1
c-10 -6 -11 -10 -3 -10 7 0 21 -17 31 -38 l19 -39 -39 -1 c-21 -1 -38 3 -38 8
0 6 6 10 14 10 26 0 30 23 7 41 -24 20 -20 39 7 39 15 0 15 -2 2 -10z m-90 -4
c0 -2 -12 -11 -26 -21 -25 -16 -25 -16 -14 4 9 17 40 30 40 17z m-195 -17 c10
-15 -5 -123 -15 -113 -4 5 -10 35 -14 67 -5 46 -3 57 8 57 8 0 18 -5 21 -11z
m64 -42 c11 4 10 1 -4 -10 -27 -22 -35 -21 -35 5 0 16 3 19 11 11 6 -6 19 -9
28 -6z m51 -21 c0 -15 -69 -61 -77 -52 -7 7 53 66 66 66 6 0 11 -6 11 -14z
m27 -48 c-3 -8 -6 -5 -6 6 -1 11 2 17 5 13 3 -3 4 -12 1 -19z m-490 -44 c32
-20 93 -18 109 4 10 14 15 15 25 5 9 -9 10 -16 3 -23 -13 -13 -144 -22 -144
-10 0 5 -17 19 -37 30 -36 19 -37 20 -8 14 17 -4 40 -13 52 -20z m689 4 c4 -6
0 -16 -8 -22 -8 -6 -15 -14 -15 -19 0 -4 -4 -22 -7 -40 -5 -25 -9 -29 -16 -17
-5 8 -7 24 -3 35 4 11 6 32 5 48 -2 21 2 27 17 27 11 0 23 -5 27 -12z m129 -7
c-36 -21 -131 -39 -120 -22 3 6 18 11 33 11 15 1 38 7 52 15 14 8 34 14 45 15
16 0 14 -4 -10 -19z m-880 -11 c-3 -5 -13 -10 -21 -10 -8 0 -12 5 -9 10 3 6
13 10 21 10 8 0 12 -4 9 -10z m955 1 l25 -7 -27 -6 c-17 -3 -32 0 -39 8 -13
16 -2 17 41 5z m-468 -33 c-7 -7 -12 -8 -12 -2 0 14 12 26 19 19 2 -3 -1 -11
-7 -17z m-270 -23 c-2 -19 -7 -35 -11 -35 -4 0 -12 16 -18 35 -10 33 -10 35
11 35 19 0 21 -4 18 -35z m68 31 c0 -2 -8 -10 -17 -17 -16 -13 -17 -12 -4 4
13 16 21 21 21 13z m97 -38 c-3 -7 -5 -2 -5 12 0 14 2 19 5 13 2 -7 2 -19 0
-25z m160 15 c-9 -9 -19 -14 -23 -11 -10 10 6 28 24 28 15 0 15 -1 -1 -17z
m107 1 c17 -17 20 -30 8 -38 -4 -2 -15 9 -24 25 -18 31 -9 39 16 13z m494 -12
c18 -12 4 -42 -20 -42 -30 0 -53 -27 -38 -45 18 -22 -15 -19 -65 4 l-40 19 42
1 c42 1 63 15 83 52 12 21 19 23 38 11z m-1320 -31 c16 -22 31 -31 59 -33 l38
-3 -32 -17 c-37 -21 -90 -25 -61 -6 14 11 14 13 -7 30 -13 10 -28 18 -34 18
-6 0 -15 9 -21 20 -18 34 32 26 58 -9z m465 2 c-1 -6 4 -17 12 -23 19 -16 19
-30 -1 -30 -8 0 -12 4 -9 10 3 5 0 7 -8 4 -9 -3 -16 3 -20 15 -3 12 0 21 6 21
7 0 6 5 -3 11 -12 8 -11 9 5 6 11 -2 19 -8 18 -14z m115 -18 c-3 -3 -9 2 -12
12 -6 14 -5 15 5 6 7 -7 10 -15 7 -18z m195 -5 c-8 -32 -9 -34 -29 -26 -13 5
-14 10 -6 18 6 6 8 16 6 22 -3 7 4 12 15 12 17 0 19 -5 14 -26z m243 2 c-8
-27 25 -63 51 -56 12 3 24 13 27 21 4 11 2 13 -9 9 -19 -7 -19 4 -2 28 13 17
15 17 43 -9 16 -16 22 -26 12 -22 -10 4 -18 -1 -21 -13 -6 -25 -48 -35 -100
-24 -37 8 -40 11 -26 23 9 9 13 26 11 44 -3 21 -1 28 7 23 7 -4 10 -15 7 -24z
m-832 -8 c6 -16 -9 -54 -22 -54 -4 0 -15 9 -25 20 -15 18 -15 21 -2 26 8 3 12
10 9 15 -3 5 4 9 14 9 11 0 23 -7 26 -16z m80 -24 c6 0 20 -13 29 -30 17 -28
17 -29 -3 -40 -20 -11 -70 -4 -70 10 0 5 -9 12 -21 15 -15 5 -18 10 -9 20 6 8
18 11 25 8 9 -3 17 5 22 24 5 20 8 23 11 11 2 -10 9 -18 16 -18z m341 9 c11
-16 1 -19 -13 -3 -7 8 -8 14 -3 14 5 0 13 -5 16 -11z m55 -71 c0 -45 -16 -32
-18 15 -2 31 0 38 8 27 5 -8 10 -27 10 -42z m199 43 c10 -7 11 -13 2 -30 -15
-26 -31 -19 -31 15 0 25 7 29 29 15z m79 -38 c-6 -7 -17 -13 -24 -13 -7 0 -11
6 -8 13 2 7 13 13 24 13 14 0 16 -3 8 -13z m-1013 -12 c-16 -10 -32 -14 -34
-8 -5 12 19 27 44 27 16 0 15 -3 -10 -19z m814 -14 c19 12 51 0 51 -20 0 -7
-15 -22 -34 -34 l-33 -21 -22 28 c-11 16 -21 39 -21 51 0 22 0 22 21 3 16 -14
24 -16 38 -7z m-48 -48 c23 -31 35 -79 20 -79 -6 0 -11 8 -11 18 0 9 -12 35
-26 56 -28 41 -12 46 17 5z m93 -477 c9 -17 33 -43 54 -56 40 -25 70 -56 55
-56 -5 0 -13 3 -17 7 -3 4 -13 8 -20 9 -56 8 -124 77 -127 127 -1 12 -5 4 -9
-17 -10 -54 5 -100 43 -132 29 -25 30 -26 7 -19 -35 11 -49 24 -65 62 l-14 33
-37 -23 c-21 -12 -56 -42 -78 -65 -23 -24 -50 -49 -61 -54 -11 -6 21 29 71 78
l91 89 8 65 c4 36 12 74 18 85 6 11 11 24 12 28 0 5 9 15 20 23 19 15 20 13
26 -68 3 -47 13 -97 23 -116z m-317 -58 c-16 -9 -31 -13 -34 -10 -3 3 5 10 18
15 37 15 47 12 16 -5z m553 -35 c27 -6 50 -14 50 -18 0 -9 -136 11 -146 22
-11 10 37 9 96 -4z m-833 -45 c-3 -3 -12 -4 -19 -1 -8 3 -5 6 6 6 11 1 17 -2
13 -5z m830 -30 c-3 -3 -12 -4 -19 -1 -8 3 -5 6 6 6 11 1 17 -2 13 -5z m-40
-10 c-3 -3 -12 -4 -19 -1 -8 3 -5 6 6 6 11 1 17 -2 13 -5z m-187 -8 c0 -2 -7
-7 -16 -10 -8 -3 -12 -2 -9 4 6 10 25 14 25 6z m-45 -16 c-3 -5 -12 -10 -18
-10 -7 0 -6 4 3 10 19 12 23 12 15 0z"/>
<path d="M690 1873 c0 -19 -4 -21 -37 -17 l-38 5 27 -23 27 -23 -20 -24 c-11
-13 -18 -26 -15 -28 8 -9 56 10 56 22 0 7 7 18 15 25 19 16 19 41 0 66 -14 19
-14 19 -15 -3z"/>
<path d="M1626 1874 c-11 -29 -6 -64 9 -64 8 0 12 -6 9 -14 -3 -8 7 -18 26
-26 39 -16 46 -9 22 20 -19 23 -19 24 7 48 l26 24 -37 -6 c-28 -3 -38 -1 -38
9 0 21 -17 27 -24 9z"/>
<path d="M510 1742 c0 -12 24 -22 52 -22 11 0 18 5 16 13 -5 14 -68 23 -68 9z"/>
<path d="M1770 1735 c0 -16 12 -18 47 -9 31 8 19 24 -18 24 -19 0 -29 -5 -29
-15z"/>
<path d="M546 1692 c-8 -13 11 -35 23 -28 6 4 11 11 11 16 0 11 -28 21 -34 12z"/>
<path d="M1774 1689 c-3 -6 -1 -16 5 -22 8 -8 11 -5 11 11 0 24 -5 28 -16 11z"/>
<path d="M603 1657 c-24 -10 -31 -27 -12 -27 5 0 7 -4 4 -10 -3 -5 -16 -10
-29 -10 -31 0 -60 -32 -44 -48 10 -10 7 -17 -10 -35 -18 -17 -22 -18 -16 -4 3
10 1 17 -5 17 -6 0 -11 -5 -11 -11 0 -6 -10 -19 -22 -28 -12 -10 -18 -23 -14
-29 11 -19 44 -14 59 9 11 15 26 20 64 21 l49 1 -23 23 c-29 29 -29 35 4 65
14 13 23 18 19 11 -4 -7 -5 -24 -2 -38 10 -39 48 -29 57 16 12 57 -24 98 -68
77z"/>
<path d="M1695 1650 c-11 -12 -19 -37 -19 -63 -1 -35 2 -42 20 -45 14 -2 24 5
32 23 14 31 28 32 38 3 5 -17 0 -27 -22 -46 -24 -20 -25 -23 -8 -18 12 4 34 1
50 -6 22 -10 28 -10 32 0 6 18 22 4 22 -19 0 -14 7 -19 25 -19 18 0 25 5 25
19 0 11 -5 23 -10 26 -6 4 -8 10 -5 15 3 4 -2 11 -11 14 -23 9 -24 8 -17 -11
5 -15 3 -14 -10 2 -9 11 -13 30 -10 42 4 18 -1 25 -22 33 -15 6 -38 11 -52 12
-21 2 -22 4 -8 14 14 11 14 13 0 28 -21 21 -28 20 -50 -4z"/>
<path d="M1857 1581 c-3 -14 2 -26 16 -36 20 -14 22 -14 25 1 2 9 -5 25 -16
36 -19 20 -19 20 -25 -1z"/>
<path d="M452 1578 c-16 -16 -15 -38 1 -38 22 0 38 16 31 33 -7 20 -16 21 -32
5z"/>
<path d="M398 1489 c-26 -15 -22 -39 6 -39 19 0 24 5 22 25 -1 28 -3 29 -28
14z"/>
<path d="M1914 1475 c-2 -25 10 -31 41 -19 14 6 14 8 -1 25 -23 26 -39 24 -40
-6z"/>
<path d="M392 1388 c-17 -17 -15 -58 3 -65 19 -7 21 -6 40 40 15 36 15 37 -8
37 -13 0 -28 -5 -35 -12z"/>
<path d="M1900 1395 c0 -17 31 -75 39 -75 17 0 25 49 11 65 -12 14 -50 21 -50
10z"/>
<path d="M1583 1225 c-15 -17 3 -25 54 -25 42 0 40 4 -8 24 -28 11 -36 12 -46
1z"/>
<path d="M723 1174 c-3 -8 0 -27 6 -41 9 -21 14 -23 26 -13 18 15 19 42 3 58
-16 16 -27 15 -35 -4z"/>
<path d="M1588 1183 c-22 -5 -30 -30 -18 -53 13 -25 36 -16 45 17 7 29 -2 41
-27 36z"/>
<path d="M1640 1179 c0 -10 33 -29 50 -29 6 0 10 5 8 12 -5 14 -58 30 -58 17z"/>
<path d="M647 1173 c-13 -12 -7 -23 12 -23 10 0 24 7 31 15 10 13 9 15 -12 15
-14 0 -28 -3 -31 -7z"/>
<path d="M802 1163 c2 -10 14 -20 28 -22 25 -3 25 -3 6 18 -23 26 -39 27 -34
4z"/>
<path d="M1494 1165 c-16 -12 -17 -14 -2 -15 23 0 48 11 48 21 0 14 -24 11
-46 -6z"/>
<path d="M963 1163 c9 -2 25 -2 35 0 9 3 1 5 -18 5 -19 0 -27 -2 -17 -5z"/>
<path d="M635 1120 c-13 -14 -15 -24 -8 -31 8 -8 15 -4 27 12 28 41 14 55 -19
19z"/>
<path d="M686 1125 c-3 -9 -6 -26 -6 -37 0 -27 24 -17 28 11 5 29 -13 49 -22
26z"/>
<path d="M1630 1111 c0 -16 7 -34 15 -41 13 -11 15 -8 15 13 0 32 -9 57 -21
57 -5 0 -9 -13 -9 -29z"/>
<path d="M1685 1110 c13 -24 20 -29 28 -21 14 14 -2 44 -27 49 -16 4 -16 2 -1
-28z"/>
<path d="M416 1104 c-11 -28 -7 -35 14 -24 23 12 27 40 6 40 -8 0 -17 -7 -20
-16z"/>
<path d="M1890 1106 c0 -16 28 -42 36 -33 3 3 3 15 -1 26 -7 23 -35 29 -35 7z"/>
<path d="M408 573 c7 -3 16 -2 19 1 4 3 -2 6 -13 5 -11 0 -14 -3 -6 -6z"/>
</g>
</svg>
